REM MD5 20e38f1938e5f38b56695b04c568499b
FILE "Hyper PlayStation Re-mix 1999 No. 1 (Japan).bin" BINARY
  TRACK 01 MODE2/2352
    INDEX 01 00:00:00
  TRACK 02 AUDIO
    INDEX 00 55:28:09
    INDEX 01 55:31:09
  TRACK 03 AUDIO
    INDEX 00 55:35:59
    INDEX 01 55:38:59
  TRACK 04 AUDIO
    INDEX 00 57:19:27
    INDEX 01 57:23:27
REM LEADOUT 60:55:17
